<mxfile host="app.diagrams.net" agent="Mozilla/5.0 (Macintosh; Intel Mac OS X 10_15_7) AppleWebKit/605.1.15 (KHTML, like Gecko) Version/18.3 Safari/605.1.15" version="26.0.16">
  <diagram name="Page-1" id="6Hi0L8O_vtziJyXJPLw_">
    <mxGraphModel grid="1" page="1" gridSize="10" guides="1" tooltips="1" connect="1" arrows="1" fold="1" pageScale="1" pageWidth="850" pageHeight="1100" math="0" shadow="0">
      <root>
        <mxCell id="0" />
        <mxCell id="1" parent="0" />
        <mxCell id="yiyz9XFKqjOi48E7yPRu-1" value="" style="whiteSpace=wrap;html=1;aspect=fixed;" vertex="1" parent="1">
          <mxGeometry x="230" width="795" height="795" as="geometry" />
        </mxCell>
        <mxCell id="39_z9VVdSM6NO5VVWZk3-5" style="rounded=0;orthogonalLoop=1;jettySize=auto;html=1;entryX=0;entryY=0.5;entryDx=0;entryDy=0;" edge="1" parent="1" source="yiyz9XFKqjOi48E7yPRu-2" target="yiyz9XFKqjOi48E7yPRu-4">
          <mxGeometry relative="1" as="geometry" />
        </mxCell>
        <mxCell id="yiyz9XFKqjOi48E7yPRu-2" value="Player" style="shape=umlActor;verticalLabelPosition=bottom;verticalAlign=top;html=1;outlineConnect=0;" vertex="1" parent="1">
          <mxGeometry x="150" y="510" width="30" height="60" as="geometry" />
        </mxCell>
        <mxCell id="yiyz9XFKqjOi48E7yPRu-3" value="Disconnect player" style="text;html=1;align=center;verticalAlign=middle;resizable=0;points=[];autosize=1;strokeColor=none;fillColor=none;" vertex="1" parent="1">
          <mxGeometry x="1030" y="20" width="120" height="30" as="geometry" />
        </mxCell>
        <mxCell id="39_z9VVdSM6NO5VVWZk3-6" style="rounded=0;orthogonalLoop=1;jettySize=auto;html=1;exitX=1;exitY=0;exitDx=0;exitDy=0;entryX=0;entryY=1;entryDx=0;entryDy=0;" edge="1" parent="1" source="yiyz9XFKqjOi48E7yPRu-4" target="39_z9VVdSM6NO5VVWZk3-3">
          <mxGeometry relative="1" as="geometry" />
        </mxCell>
        <mxCell id="yiyz9XFKqjOi48E7yPRu-4" value="Request to disconnect" style="ellipse;whiteSpace=wrap;html=1;" vertex="1" parent="1">
          <mxGeometry x="340" y="520" width="110" height="60" as="geometry" />
        </mxCell>
        <mxCell id="39_z9VVdSM6NO5VVWZk3-12" style="edgeStyle=orthogonalEdgeStyle;rounded=0;orthogonalLoop=1;jettySize=auto;html=1;entryX=0;entryY=0.5;entryDx=0;entryDy=0;" edge="1" parent="1" source="yiyz9XFKqjOi48E7yPRu-14" target="39_z9VVdSM6NO5VVWZk3-1">
          <mxGeometry relative="1" as="geometry" />
        </mxCell>
        <mxCell id="yiyz9XFKqjOi48E7yPRu-14" value="Server" style="shape=umlActor;verticalLabelPosition=bottom;verticalAlign=top;html=1;outlineConnect=0;" vertex="1" parent="1">
          <mxGeometry x="140" y="140" width="30" height="60" as="geometry" />
        </mxCell>
        <mxCell id="yiyz9XFKqjOi48E7yPRu-17" value="Inactive" style="ellipse;whiteSpace=wrap;html=1;" vertex="1" parent="1">
          <mxGeometry x="430" y="70" width="110" height="60" as="geometry" />
        </mxCell>
        <mxCell id="39_z9VVdSM6NO5VVWZk3-8" style="rounded=0;orthogonalLoop=1;jettySize=auto;html=1;exitX=1;exitY=0;exitDx=0;exitDy=0;entryX=0;entryY=1;entryDx=0;entryDy=0;" edge="1" parent="1" source="yiyz9XFKqjOi48E7yPRu-18" target="39_z9VVdSM6NO5VVWZk3-2">
          <mxGeometry relative="1" as="geometry" />
        </mxCell>
        <mxCell id="yiyz9XFKqjOi48E7yPRu-18" value="Remove player from server" style="ellipse;whiteSpace=wrap;html=1;" vertex="1" parent="1">
          <mxGeometry x="572.5" y="350" width="110" height="60" as="geometry" />
        </mxCell>
        <mxCell id="39_z9VVdSM6NO5VVWZk3-10" style="rounded=0;orthogonalLoop=1;jettySize=auto;html=1;exitX=0.5;exitY=1;exitDx=0;exitDy=0;entryX=0.5;entryY=0;entryDx=0;entryDy=0;" edge="1" parent="1" source="yiyz9XFKqjOi48E7yPRu-19" target="39_z9VVdSM6NO5VVWZk3-4">
          <mxGeometry relative="1" as="geometry" />
        </mxCell>
        <mxCell id="39_z9VVdSM6NO5VVWZk3-16" style="edgeStyle=orthogonalEdgeStyle;rounded=0;orthogonalLoop=1;jettySize=auto;html=1;" edge="1" parent="1" source="yiyz9XFKqjOi48E7yPRu-19">
          <mxGeometry relative="1" as="geometry">
            <mxPoint x="155" y="120" as="targetPoint" />
            <Array as="points">
              <mxPoint x="885" y="20" />
              <mxPoint x="155" y="20" />
            </Array>
          </mxGeometry>
        </mxCell>
        <mxCell id="yiyz9XFKqjOi48E7yPRu-19" value="Update game status" style="ellipse;whiteSpace=wrap;html=1;" vertex="1" parent="1">
          <mxGeometry x="840" y="280" width="110" height="60" as="geometry" />
        </mxCell>
        <mxCell id="yiyz9XFKqjOi48E7yPRu-20" value="Lost Connection" style="ellipse;whiteSpace=wrap;html=1;" vertex="1" parent="1">
          <mxGeometry x="400" y="250" width="110" height="60" as="geometry" />
        </mxCell>
        <mxCell id="39_z9VVdSM6NO5VVWZk3-13" style="rounded=0;orthogonalLoop=1;jettySize=auto;html=1;exitX=0.934;exitY=0.277;exitDx=0;exitDy=0;entryX=0;entryY=1;entryDx=0;entryDy=0;startArrow=classic;startFill=0;endArrow=none;dashed=1;exitPerimeter=0;" edge="1" parent="1" source="39_z9VVdSM6NO5VVWZk3-1" target="yiyz9XFKqjOi48E7yPRu-17">
          <mxGeometry relative="1" as="geometry" />
        </mxCell>
        <mxCell id="39_z9VVdSM6NO5VVWZk3-14" style="rounded=0;orthogonalLoop=1;jettySize=auto;html=1;exitX=0.5;exitY=1;exitDx=0;exitDy=0;entryX=0;entryY=0.5;entryDx=0;entryDy=0;startArrow=classic;startFill=0;endArrow=none;dashed=1;" edge="1" parent="1" source="39_z9VVdSM6NO5VVWZk3-1" target="yiyz9XFKqjOi48E7yPRu-20">
          <mxGeometry relative="1" as="geometry" />
        </mxCell>
        <mxCell id="39_z9VVdSM6NO5VVWZk3-15" style="edgeStyle=orthogonalEdgeStyle;rounded=0;orthogonalLoop=1;jettySize=auto;html=1;entryX=0.5;entryY=0;entryDx=0;entryDy=0;" edge="1" parent="1" source="39_z9VVdSM6NO5VVWZk3-1" target="39_z9VVdSM6NO5VVWZk3-2">
          <mxGeometry relative="1" as="geometry" />
        </mxCell>
        <mxCell id="39_z9VVdSM6NO5VVWZk3-1" value="Detect disconnection" style="ellipse;whiteSpace=wrap;html=1;" vertex="1" parent="1">
          <mxGeometry x="300" y="140" width="110" height="60" as="geometry" />
        </mxCell>
        <mxCell id="39_z9VVdSM6NO5VVWZk3-2" value="Notify other players" style="ellipse;whiteSpace=wrap;html=1;" vertex="1" parent="1">
          <mxGeometry x="700" y="230" width="110" height="60" as="geometry" />
        </mxCell>
        <mxCell id="39_z9VVdSM6NO5VVWZk3-7" style="rounded=0;orthogonalLoop=1;jettySize=auto;html=1;exitX=1;exitY=0;exitDx=0;exitDy=0;entryX=0;entryY=1;entryDx=0;entryDy=0;" edge="1" parent="1" source="39_z9VVdSM6NO5VVWZk3-3" target="yiyz9XFKqjOi48E7yPRu-18">
          <mxGeometry relative="1" as="geometry" />
        </mxCell>
        <mxCell id="39_z9VVdSM6NO5VVWZk3-3" value="Save player progress" style="ellipse;whiteSpace=wrap;html=1;" vertex="1" parent="1">
          <mxGeometry x="450" y="430" width="110" height="60" as="geometry" />
        </mxCell>
        <mxCell id="39_z9VVdSM6NO5VVWZk3-17" style="edgeStyle=orthogonalEdgeStyle;rounded=0;orthogonalLoop=1;jettySize=auto;html=1;" edge="1" parent="1">
          <mxGeometry relative="1" as="geometry">
            <mxPoint x="930" y="540" as="sourcePoint" />
            <mxPoint x="165" y="600" as="targetPoint" />
            <Array as="points">
              <mxPoint x="900" y="540" />
              <mxPoint x="900" y="730" />
              <mxPoint x="165" y="730" />
            </Array>
          </mxGeometry>
        </mxCell>
        <mxCell id="39_z9VVdSM6NO5VVWZk3-4" value="Allow reconnection" style="ellipse;whiteSpace=wrap;html=1;" vertex="1" parent="1">
          <mxGeometry x="840" y="490" width="110" height="60" as="geometry" />
        </mxCell>
        <mxCell id="39_z9VVdSM6NO5VVWZk3-9" style="rounded=0;orthogonalLoop=1;jettySize=auto;html=1;exitX=1;exitY=1;exitDx=0;exitDy=0;" edge="1" parent="1" source="39_z9VVdSM6NO5VVWZk3-2">
          <mxGeometry relative="1" as="geometry">
            <mxPoint x="840" y="300" as="targetPoint" />
          </mxGeometry>
        </mxCell>
      </root>
    </mxGraphModel>
  </diagram>
</mxfile>
